<svg width="400" height="400" viewBox="0 0 400 400" fill="none" xmlns="http://www.w3.org/2000/svg">
<path d="M200 350C282.843 350 350 282.843 350 200C350 117.157 282.843 50 200 50C117.157 50 50 117.157 50 200C50 282.843 117.157 350 200 350Z" stroke="#191919" stroke-width="12" stroke-miterlimit="10" stroke-linecap="round" stroke-linejoin="round"/>
<path d="M127.39 124.28C127.39 124.28 136.61 114.28 150 114.28" stroke="#191919" stroke-width="12" stroke-miterlimit="10" stroke-linecap="round" stroke-linejoin="round"/>
<path d="M247.7 115.81C247.7 115.81 261.21 114.19 271.39 122.87" stroke="#191919" stroke-width="12" stroke-miterlimit="10" stroke-linecap="round" stroke-linejoin="round"/>
<path d="M127.39 214.02C127.39 214.02 150.28 254.28 200.28 254.28C250.28 254.28 271.39 212.99 271.39 212.99" stroke="#191919" stroke-width="12" stroke-miterlimit="10" stroke-linecap="round" stroke-linejoin="round"/>
<path d="M147.5 164.44C141.89 164.44 137.33 159.88 137.33 154.27C137.33 148.66 141.89 144.1 147.5 144.1C153.11 144.1 157.67 148.66 157.67 154.27C157.67 159.88 153.11 164.44 147.5 164.44Z" fill="#191919"/>
<path d="M252.5 164.44C246.89 164.44 242.33 159.88 242.33 154.27C242.33 148.66 246.89 144.1 252.5 144.1C258.11 144.1 262.67 148.66 262.67 154.27C262.67 159.88 258.11 164.44 252.5 164.44Z" fill="#191919"/>
</svg>
